<svg xmlns="http://www.w3.org/2000/svg" version="1.1" xmlns:xlink="http://www.w3.org/1999/xlink" xmlns:svgjs="http://svgjs.dev/svgjs" width="1000" height="1000" viewBox="0 0 1000 1000"><rect width="1000" height="1000" fill="#ffffff"></rect><g transform="matrix(0.7,0,0,0.7,149.57578079079406,415.59800268681226)"><svg viewBox="0 0 396 96" data-background-color="#ffffff" preserveAspectRatio="xMidYMid meet" height="242" width="1000" xmlns="http://www.w3.org/2000/svg" xmlns:xlink="http://www.w3.org/1999/xlink"><g id="tight-bounds" transform="matrix(1,0,0,1,0.23998686692220872,-0.1688799169656363)"><svg viewBox="0 0 395.52 96.3377598339313" height="96.3377598339313" width="395.52"><g><svg viewBox="0 0 559.7331698808676 136.33555747134938" height="96.3377598339313" width="395.52"><g><rect width="4.578915085541854" height="136.33555747134938" x="147.64756608971888" y="0" fill="#407f3d" opacity="1" stroke-width="0" stroke="transparent" fill-opacity="1" class="rect-o-0" data-fill-palette-color="primary" rx="1%" id="o-0" data-palette-color="#407f3d"></rect></g><g transform="matrix(1,0,0,1,164.2131698808677,0.33914317778942404)"><svg viewBox="0 0 395.52 135.65727111577053" height="135.65727111577053" width="395.52"><g><svg viewBox="0 0 395.52 135.65727111577053" height="135.65727111577053" width="395.52" id="textblock"><g><svg viewBox="0 0 395.52 110.509646969983" height="110.509646969983" width="395.52"><g transform="matrix(1,0,0,1,0,0)"><svg width="395.52" viewBox="3.249999523162842 -33.400001525878906 264.8499755859375 71" height="110.509646969983" data-palette-color="#407f3d"><svg></svg><svg></svg><g class="undefined-text-0" data-fill-palette-color="primary" id="text-0"><path xmlns="http://www.w3.org/2000/svg" d="M17.55 0.6v0c-2.033 0-3.917-0.383-5.65-1.15-1.733-0.767-3.24-1.877-4.52-3.33-1.287-1.447-2.297-3.227-3.03-5.34-0.733-2.12-1.1-4.513-1.1-7.18v0c0-2.633 0.367-5 1.1-7.1 0.733-2.1 1.75-3.883 3.05-5.35 1.3-1.467 2.85-2.593 4.65-3.38 1.8-0.78 3.767-1.17 5.9-1.17v0c1.967 0 3.71 0.4 5.23 1.2 1.513 0.8 2.753 1.733 3.72 2.8v0l-2.35 2.65c-0.867-0.9-1.833-1.627-2.9-2.18-1.067-0.547-2.3-0.82-3.7-0.82v0c-1.567 0-2.99 0.307-4.27 0.92-1.287 0.62-2.38 1.503-3.28 2.65-0.9 1.153-1.6 2.547-2.1 4.18-0.5 1.633-0.75 3.467-0.75 5.5v0c0 2.067 0.25 3.923 0.75 5.57 0.5 1.653 1.2 3.063 2.1 4.23 0.9 1.167 1.993 2.067 3.28 2.7 1.28 0.633 2.703 0.95 4.27 0.95v0c1.5 0 2.843-0.317 4.03-0.95 1.18-0.633 2.303-1.533 3.37-2.7v0l2.35 2.55c-1.3 1.5-2.767 2.667-4.4 3.5-1.633 0.833-3.55 1.25-5.75 1.25zM45 0.6v0c-1.867 0-3.567-0.393-5.1-1.18-1.533-0.78-2.86-1.903-3.98-3.37-1.113-1.467-1.977-3.26-2.59-5.38-0.62-2.113-0.93-4.52-0.93-7.22v0c0-2.633 0.31-5 0.93-7.1 0.613-2.1 1.477-3.867 2.59-5.3 1.12-1.433 2.447-2.533 3.98-3.3 1.533-0.767 3.233-1.15 5.1-1.15v0c1.833 0 3.527 0.383 5.08 1.15 1.547 0.767 2.88 1.867 4 3.3 1.113 1.433 1.977 3.2 2.59 5.3 0.62 2.1 0.93 4.467 0.93 7.1v0c0 2.7-0.31 5.107-0.93 7.22-0.613 2.12-1.477 3.913-2.59 5.38-1.12 1.467-2.453 2.59-4 3.37-1.553 0.787-3.247 1.18-5.08 1.18zM45-3.05v0c1.233 0 2.367-0.31 3.4-0.93 1.033-0.613 1.91-1.503 2.63-2.67 0.713-1.167 1.27-2.583 1.67-4.25 0.4-1.667 0.6-3.55 0.6-5.65v0c0-2.067-0.2-3.917-0.6-5.55-0.4-1.633-0.957-3.017-1.67-4.15-0.72-1.133-1.597-2-2.63-2.6-1.033-0.6-2.167-0.9-3.4-0.9v0c-1.267 0-2.407 0.3-3.42 0.9-1.02 0.6-1.887 1.467-2.6 2.6-0.72 1.133-1.28 2.517-1.68 4.15-0.4 1.633-0.6 3.483-0.6 5.55v0c0 2.1 0.2 3.983 0.6 5.65 0.4 1.667 0.96 3.083 1.68 4.25 0.713 1.167 1.58 2.057 2.6 2.67 1.013 0.62 2.153 0.93 3.42 0.93zM67.5 0h-3.9v-32.8h5.1l4.6 14 1.6 5.3h0.2l1.55-5.3 4.65-14h5.1v32.8h-4v-16.4c0-0.8 0.023-1.727 0.07-2.78 0.053-1.047 0.12-2.103 0.2-3.17 0.087-1.067 0.163-2.1 0.23-3.1 0.067-1 0.133-1.85 0.2-2.55v0h-0.15l-1.85 6.4-4.7 12.9h-3l-4.6-12.9-1.9-6.4h-0.1c0.067 0.7 0.143 1.55 0.23 2.55 0.08 1 0.153 2.033 0.22 3.1 0.067 1.067 0.123 2.123 0.17 3.17 0.053 1.053 0.08 1.98 0.08 2.78v0zM97.5 0h-3.9v-32.8h5.1l4.6 14 1.6 5.3h0.2l1.55-5.3 4.65-14h5.1v32.8h-4v-16.4c0-0.8 0.023-1.727 0.07-2.78 0.053-1.047 0.12-2.103 0.2-3.17 0.087-1.067 0.163-2.1 0.23-3.1 0.067-1 0.133-1.85 0.2-2.55v0h-0.15l-1.85 6.4-4.7 12.9h-3l-4.6-12.9-1.9-6.4h-0.1c0.067 0.7 0.143 1.55 0.23 2.55 0.08 1 0.153 2.033 0.22 3.1 0.067 1.067 0.123 2.123 0.17 3.17 0.053 1.053 0.08 1.98 0.08 2.78v0zM135.05 0.6v0c-1.6 0-3.083-0.233-4.45-0.7-1.367-0.467-2.54-1.227-3.52-2.28-0.987-1.047-1.753-2.387-2.3-4.02-0.553-1.633-0.83-3.633-0.83-6v0-20.4h4.2v20.5c0 1.7 0.177 3.14 0.53 4.32 0.347 1.187 0.83 2.137 1.45 2.85 0.613 0.72 1.337 1.247 2.17 1.58 0.833 0.333 1.75 0.5 2.75 0.5v0c1 0 1.917-0.167 2.75-0.5 0.833-0.333 1.567-0.86 2.2-1.58 0.633-0.713 1.123-1.663 1.47-2.85 0.353-1.18 0.53-2.62 0.53-4.32v0-20.5h4.05v20.4c0 2.367-0.277 4.367-0.83 6-0.547 1.633-1.303 2.973-2.27 4.02-0.967 1.053-2.127 1.813-3.48 2.28-1.347 0.467-2.82 0.7-4.42 0.7zM158.1 0h-4v-32.8h4.6l10.5 20.6 3.15 6.8h0.1c-0.067-1.633-0.173-3.343-0.32-5.13-0.153-1.78-0.23-3.537-0.23-5.27v0-17h4v32.8h-4.6l-10.5-20.6-3.15-6.8h-0.1c0.067 1.7 0.177 3.407 0.33 5.12 0.147 1.72 0.22 3.43 0.22 5.13v0zM205.25 0h-20.5v-3.55h8.15v-25.75h-8.15v-3.5h20.5v3.5h-8.15v25.75h8.15zM227.1 0h-4.2v-29.3h-10.8v-3.5h25.8v3.5h-10.8zM257.1 0h-4.2v-11.7l-11-21.1h4.4l4.95 9.75c0.633 1.267 1.25 2.523 1.85 3.77 0.6 1.253 1.233 2.547 1.9 3.88v0h0.2c0.667-1.333 1.317-2.633 1.95-3.9 0.633-1.267 1.267-2.533 1.9-3.8v0l4.75-9.7h4.3l-11 21.1z" fill="#407f3d" fill-rule="nonzero" stroke="none" stroke-width="1" stroke-linecap="butt" stroke-linejoin="miter" stroke-miterlimit="10" stroke-dasharray="" stroke-dashoffset="0" font-family="none" font-weight="none" font-size="none" text-anchor="none" style="mix-blend-mode: normal" data-fill-palette-color="primary" opacity="1"></path><path xmlns="http://www.w3.org/2000/svg" d="M17.55 37.6v0c-2.033 0-3.917-0.383-5.65-1.15-1.733-0.767-3.24-1.877-4.52-3.33-1.287-1.447-2.297-3.227-3.03-5.34-0.733-2.12-1.1-4.513-1.1-7.18v0c0-2.633 0.367-5 1.1-7.1 0.733-2.1 1.75-3.883 3.05-5.35 1.3-1.467 2.85-2.593 4.65-3.38 1.8-0.78 3.767-1.17 5.9-1.17v0c1.967 0 3.71 0.4 5.23 1.2 1.513 0.8 2.753 1.733 3.72 2.8v0l-2.35 2.65c-0.867-0.9-1.833-1.627-2.9-2.18-1.067-0.547-2.3-0.82-3.7-0.82v0c-1.567 0-2.99 0.307-4.27 0.92-1.287 0.62-2.38 1.503-3.28 2.65-0.9 1.153-1.6 2.547-2.1 4.18-0.5 1.633-0.75 3.467-0.75 5.5v0c0 2.067 0.25 3.923 0.75 5.57 0.5 1.653 1.2 3.063 2.1 4.23 0.9 1.167 1.993 2.067 3.28 2.7 1.28 0.633 2.703 0.95 4.27 0.95v0c1.5 0 2.843-0.317 4.03-0.95 1.18-0.633 2.303-1.533 3.37-2.7v0l2.35 2.55c-1.3 1.5-2.767 2.667-4.4 3.5-1.633 0.833-3.55 1.25-5.75 1.25zM45 37.6v0c-1.867 0-3.567-0.393-5.1-1.18-1.533-0.78-2.86-1.903-3.98-3.37-1.113-1.467-1.977-3.26-2.59-5.38-0.62-2.113-0.93-4.52-0.93-7.22v0c0-2.633 0.31-5 0.93-7.1 0.613-2.1 1.477-3.867 2.59-5.3 1.12-1.433 2.447-2.533 3.98-3.3 1.533-0.767 3.233-1.15 5.1-1.15v0c1.833 0 3.527 0.383 5.08 1.15 1.547 0.767 2.88 1.867 4 3.3 1.113 1.433 1.977 3.2 2.59 5.3 0.62 2.1 0.93 4.467 0.93 7.1v0c0 2.7-0.31 5.107-0.93 7.22-0.613 2.12-1.477 3.913-2.59 5.38-1.12 1.467-2.453 2.59-4 3.37-1.553 0.787-3.247 1.18-5.08 1.18zM45 33.95v0c1.233 0 2.367-0.31 3.4-0.93 1.033-0.613 1.91-1.503 2.63-2.67 0.713-1.167 1.27-2.583 1.67-4.25 0.4-1.667 0.6-3.55 0.6-5.65v0c0-2.067-0.2-3.917-0.6-5.55-0.4-1.633-0.957-3.017-1.67-4.15-0.72-1.133-1.597-2-2.63-2.6-1.033-0.6-2.167-0.9-3.4-0.9v0c-1.267 0-2.407 0.3-3.42 0.9-1.02 0.6-1.887 1.467-2.6 2.6-0.72 1.133-1.28 2.517-1.68 4.15-0.4 1.633-0.6 3.483-0.6 5.55v0c0 2.1 0.2 3.983 0.6 5.65 0.4 1.667 0.96 3.083 1.68 4.25 0.713 1.167 1.58 2.057 2.6 2.67 1.013 0.62 2.153 0.93 3.42 0.93zM67.5 37h-3.9v-32.8h5.1l4.6 14 1.6 5.3h0.2l1.55-5.3 4.65-14h5.1v32.8h-4v-16.4c0-0.8 0.023-1.727 0.07-2.78 0.053-1.047 0.12-2.103 0.2-3.17 0.087-1.067 0.163-2.1 0.23-3.1 0.067-1 0.133-1.85 0.2-2.55v0h-0.15l-1.85 6.4-4.7 12.9h-3l-4.6-12.9-1.9-6.4h-0.1c0.067 0.7 0.143 1.55 0.23 2.55 0.08 1 0.153 2.033 0.22 3.1 0.067 1.067 0.123 2.123 0.17 3.17 0.053 1.053 0.08 1.98 0.08 2.78v0zM99.25 37h-4.15v-32.8h9.9c1.8 0 3.45 0.167 4.95 0.5 1.5 0.333 2.783 0.873 3.85 1.62 1.067 0.753 1.893 1.747 2.48 2.98 0.58 1.233 0.87 2.75 0.87 4.55v0c0 1.733-0.29 3.233-0.87 4.5-0.587 1.267-1.42 2.317-2.5 3.15-1.087 0.833-2.373 1.457-3.86 1.87-1.48 0.42-3.12 0.63-4.92 0.63v0h-5.75zM99.25 7.55v13.05h5.25c2.9 0 5.033-0.543 6.4-1.63 1.367-1.08 2.05-2.787 2.05-5.12v0c0-2.367-0.7-4.01-2.1-4.93-1.4-0.913-3.517-1.37-6.35-1.37v0zM145.25 37h-20.5v-3.55h8.15v-25.75h-8.15v-3.5h20.5v3.5h-8.15v25.75h8.15zM177.05 37h-20.35v-32.8h4.1v29.25h16.25zM206.5 37h-20.8v-32.8h20.3v3.5h-16.1v10.3h13.6v3.55h-13.6v11.9h16.6zM219.15 37h-4.15v-32.8h10.2c1.667 0 3.2 0.157 4.6 0.47 1.4 0.32 2.61 0.847 3.63 1.58 1.013 0.733 1.803 1.683 2.37 2.85 0.567 1.167 0.85 2.6 0.85 4.3v0c0 2.567-0.667 4.617-2 6.15-1.333 1.533-3.117 2.583-5.35 3.15v0l8.35 14.3h-4.75l-7.9-13.85h-5.85zM219.15 7.55v12.2h5.45c2.567 0 4.523-0.523 5.87-1.57 1.353-1.053 2.03-2.647 2.03-4.78v0c0-2.167-0.677-3.683-2.03-4.55-1.347-0.867-3.303-1.3-5.87-1.3v0z" fill="#407f3d" fill-rule="nonzero" stroke="none" stroke-width="1" stroke-linecap="butt" stroke-linejoin="miter" stroke-miterlimit="10" stroke-dasharray="" stroke-dashoffset="0" font-family="none" font-weight="none" font-size="none" text-anchor="none" style="mix-blend-mode: normal" data-fill-palette-color="primary" opacity="1"></path></g></svg></g></svg></g><g transform="matrix(1,0,0,1,0,122.49633567558995)"><svg viewBox="0 0 300.5952 13.160935440180587" height="13.160935440180587" width="300.5952"><g transform="matrix(1,0,0,1,0,0)"><svg width="300.5952" viewBox="6.300000190734863 -36.29999923706055 1063.1099853515625 46.54999923706055" height="13.160935440180587" data-palette-color="#322315"><path d="M11.3 0L6.3 0 6.3-32.75 26.8-32.75 26.8-28.55 11.3-28.55 11.3-18.4 24.45-18.4 24.45-14.15 11.3-14.15 11.3 0ZM50.25 0L45.3 0 45.3-20.45 34.35-20.45 34.35-24.45 50.25-24.45 50.25 0ZM47.35-29.2L47.35-29.2Q45.75-29.2 44.7-30.18 43.65-31.15 43.65-32.75L43.65-32.75Q43.65-34.35 44.7-35.33 45.75-36.3 47.35-36.3L47.35-36.3Q48.95-36.3 50-35.33 51.05-34.35 51.05-32.75L51.05-32.75Q51.05-31.15 50-30.18 48.95-29.2 47.35-29.2ZM69.34 0L64.4 0 64.4-24.45 68.45-24.45 68.84-20.5 69.05-20.5Q70.9-22.4 73.05-23.73 75.2-25.05 78.05-25.05L78.05-25.05Q82.34-25.05 84.34-22.5 86.34-19.95 86.34-15.15L86.34-15.15 86.34 0 81.4 0 81.4-14.5Q81.4-17.7 80.25-19.23 79.09-20.75 76.3-20.75L76.3-20.75Q74.34-20.75 72.8-19.78 71.25-18.8 69.34-16.85L69.34-16.85 69.34 0ZM103.34 0.6L103.34 0.6Q100.94 0.6 99.02-0.25 97.09-1.1 95.69-2.75 94.29-4.4 93.54-6.78 92.79-9.15 92.79-12.2L92.79-12.2Q92.79-15.2 93.72-17.57 94.64-19.95 96.17-21.6 97.69-23.25 99.67-24.15 101.64-25.05 103.74-25.05L103.74-25.05Q105.89-25.05 107.57-24.25 109.24-23.45 110.74-22L110.74-22 110.89-22 110.64-26.35 110.64-35.45 115.59-35.45 115.59 0 111.54 0 111.14-3 110.99-3Q109.54-1.55 107.54-0.48 105.54 0.6 103.34 0.6ZM104.49-3.5L104.49-3.5Q107.79-3.5 110.64-6.8L110.64-6.8 110.64-18.4Q109.19-19.8 107.74-20.35 106.29-20.9 104.84-20.9L104.84-20.9Q103.39-20.9 102.14-20.3 100.89-19.7 99.94-18.57 98.99-17.45 98.44-15.85 97.89-14.25 97.89-12.25L97.89-12.25Q97.89-8 99.62-5.75 101.34-3.5 104.49-3.5ZM170.19 0.6L170.19 0.6Q166.09 0.6 163.94-1.75 161.79-4.1 161.79-8.55L161.79-8.55 161.79-31.5 153.39-31.5 153.39-35.45 166.74-35.45 166.74-8.25Q166.74-5.7 168.01-4.58 169.29-3.45 171.34-3.45L171.34-3.45Q173.24-3.45 175.74-4.5L175.74-4.5 176.94-0.8Q175.19-0.1 173.71 0.25 172.24 0.6 170.19 0.6ZM194.99 0.6L194.99 0.6Q192.59 0.6 190.39-0.25 188.19-1.1 186.49-2.75 184.79-4.4 183.79-6.78 182.79-9.15 182.79-12.2L182.79-12.2Q182.79-15.25 183.79-17.65 184.79-20.05 186.49-21.7 188.19-23.35 190.39-24.2 192.59-25.05 194.99-25.05L194.99-25.05Q197.39-25.05 199.59-24.2 201.79-23.35 203.49-21.7 205.19-20.05 206.19-17.65 207.19-15.25 207.19-12.2L207.19-12.2Q207.19-9.15 206.19-6.78 205.19-4.4 203.49-2.75 201.79-1.1 199.59-0.25 197.39 0.6 194.99 0.6ZM194.99-3.45L194.99-3.45Q198.29-3.45 200.19-5.85 202.09-8.25 202.09-12.2L202.09-12.2Q202.09-16.15 200.19-18.55 198.29-20.95 194.99-20.95L194.99-20.95Q191.69-20.95 189.79-18.55 187.89-16.15 187.89-12.2L187.89-12.2Q187.89-8.25 189.79-5.85 191.69-3.45 194.99-3.45ZM227.23 0.6L227.23 0.6Q224.38 0.6 221.91-0.25 219.43-1.1 217.63-2.75 215.83-4.4 214.81-6.78 213.78-9.15 213.78-12.2L213.78-12.2Q213.78-15.25 214.88-17.65 215.98-20.05 217.88-21.7 219.78-23.35 222.26-24.2 224.73-25.05 227.53-25.05L227.53-25.05Q230.53-25.05 232.78-24.03 235.03-23 236.53-21.55L236.53-21.55 234.13-18.4Q232.68-19.6 231.13-20.28 229.58-20.95 227.78-20.95L227.78-20.95Q225.83-20.95 224.18-20.33 222.53-19.7 221.36-18.55 220.18-17.4 219.53-15.78 218.88-14.15 218.88-12.2L218.88-12.2Q218.88-10.25 219.51-8.63 220.13-7 221.31-5.85 222.48-4.7 224.08-4.08 225.68-3.45 227.63-3.45L227.63-3.45Q229.88-3.45 231.66-4.3 233.43-5.15 234.88-6.35L234.88-6.35 237.03-3.15Q234.93-1.35 232.43-0.38 229.93 0.6 227.23 0.6ZM252.03 0.6L252.03 0.6Q250.28 0.6 248.76 0.1 247.23-0.4 246.13-1.33 245.03-2.25 244.41-3.55 243.78-4.85 243.78-6.45L243.78-6.45Q243.78-8.5 244.76-10.05 245.73-11.6 247.81-12.7 249.88-13.8 253.16-14.5 256.43-15.2 261.03-15.55L261.03-15.55Q260.93-17.8 259.56-19.4 258.18-21 254.93-21L254.93-21Q252.68-21 250.56-20.15 248.43-19.3 246.63-18.25L246.63-18.25 244.78-21.6Q245.78-22.2 247.03-22.83 248.28-23.45 249.71-23.95 251.13-24.45 252.66-24.75 254.18-25.05 255.78-25.05L255.78-25.05Q260.88-25.05 263.43-22.3 265.98-19.55 265.98-14.7L265.98-14.7 265.98 0 261.93 0 261.53-3.15 261.38-3.15Q259.43-1.65 257-0.53 254.58 0.6 252.03 0.6ZM253.43-3.35L253.43-3.35Q255.38-3.35 257.25-4.2 259.13-5.05 261.03-6.6L261.03-6.6 261.03-12.4Q257.43-12.1 255.03-11.63 252.63-11.15 251.21-10.43 249.78-9.7 249.18-8.8 248.58-7.9 248.58-6.8L248.58-6.8Q248.58-4.95 250.01-4.15 251.43-3.35 253.43-3.35ZM290.18 0.6L290.18 0.6Q286.08 0.6 283.93-1.75 281.78-4.1 281.78-8.55L281.78-8.55 281.78-31.5 273.38-31.5 273.38-35.45 286.73-35.45 286.73-8.25Q286.73-5.7 288-4.58 289.28-3.45 291.33-3.45L291.33-3.45Q293.23-3.45 295.73-4.5L295.73-4.5 296.93-0.8Q295.18-0.1 293.7 0.25 292.23 0.6 290.18 0.6ZM346.47 0.6L346.47 0.6Q343.67 0.6 341.27-0.25 338.87-1.1 337.07-2.75 335.27-4.4 334.25-6.8 333.22-9.2 333.22-12.25L333.22-12.25Q333.22-15.25 334.27-17.63 335.32-20 337.05-21.65 338.77-23.3 341.02-24.18 343.27-25.05 345.72-25.05L345.72-25.05Q348.42-25.05 350.52-24.2 352.62-23.35 354.05-21.83 355.47-20.3 356.22-18.18 356.97-16.05 356.97-13.5L356.97-13.5Q356.97-12.7 356.92-12 356.87-11.3 356.77-10.8L356.77-10.8 338.17-10.8Q338.57-7 341.05-5.15 343.52-3.3 347.12-3.3L347.12-3.3Q349.17-3.3 350.87-3.88 352.57-4.45 354.22-5.45L354.22-5.45 355.97-2.3Q354.07-1.05 351.7-0.23 349.32 0.6 346.47 0.6ZM345.87-21.15L345.87-21.15Q344.47-21.15 343.22-20.73 341.97-20.3 340.97-19.45 339.97-18.6 339.27-17.35 338.57-16.1 338.27-14.45L338.27-14.45 352.52-14.45Q352.27-17.8 350.5-19.48 348.72-21.15 345.87-21.15ZM377.87 0L372.27 0 362.27-24.45 367.27-24.45 372.42-11.15Q373.12-9.3 373.75-7.5 374.37-5.7 375.02-3.9L375.02-3.9 375.22-3.9Q375.87-5.7 376.47-7.5 377.07-9.3 377.77-11.15L377.77-11.15 382.92-24.45 387.67-24.45 377.87 0ZM406.47 0.6L406.47 0.6Q403.67 0.6 401.27-0.25 398.87-1.1 397.07-2.75 395.27-4.4 394.24-6.8 393.22-9.2 393.22-12.25L393.22-12.25Q393.22-15.25 394.27-17.63 395.32-20 397.04-21.65 398.77-23.3 401.02-24.18 403.27-25.05 405.72-25.05L405.72-25.05Q408.42-25.05 410.52-24.2 412.62-23.35 414.04-21.83 415.47-20.3 416.22-18.18 416.97-16.05 416.97-13.5L416.97-13.5Q416.97-12.7 416.92-12 416.87-11.3 416.77-10.8L416.77-10.8 398.17-10.8Q398.57-7 401.04-5.15 403.52-3.3 407.12-3.3L407.12-3.3Q409.17-3.3 410.87-3.88 412.57-4.45 414.22-5.45L414.22-5.45 415.97-2.3Q414.07-1.05 411.69-0.23 409.32 0.6 406.47 0.6ZM405.87-21.15L405.87-21.15Q404.47-21.15 403.22-20.73 401.97-20.3 400.97-19.45 399.97-18.6 399.27-17.35 398.57-16.1 398.27-14.45L398.27-14.45 412.52-14.45Q412.27-17.8 410.49-19.48 408.72-21.15 405.87-21.15ZM429.32 0L424.37 0 424.37-24.45 428.42-24.45 428.82-20.5 429.02-20.5Q430.87-22.4 433.02-23.73 435.17-25.05 438.02-25.05L438.02-25.05Q442.32-25.05 444.32-22.5 446.32-19.95 446.32-15.15L446.32-15.15 446.32 0 441.37 0 441.37-14.5Q441.37-17.7 440.22-19.23 439.07-20.75 436.27-20.75L436.27-20.75Q434.32-20.75 432.77-19.78 431.22-18.8 429.32-16.85L429.32-16.85 429.32 0ZM469.56 0.6L469.56 0.6Q466.86 0.6 464.99-0.15 463.11-0.9 461.99-2.25 460.86-3.6 460.36-5.48 459.86-7.35 459.86-9.65L459.86-9.65 459.86-20.45 453.16-20.45 453.16-24.2 460.06-24.45 460.71-32.2 464.81-32.2 464.81-24.45 476.36-24.45 476.36-20.45 464.81-20.45 464.81-9.65Q464.81-6.5 466.09-4.95 467.36-3.4 470.71-3.4L470.71-3.4Q472.31-3.4 473.66-3.68 475.01-3.95 476.31-4.45L476.31-4.45 477.31-0.8Q475.66-0.25 473.81 0.18 471.96 0.6 469.56 0.6ZM495.26 0.6L495.26 0.6Q491.76 0.6 488.66-0.53 485.56-1.65 483.31-3.2L483.31-3.2 485.51-6.4Q487.66-4.9 490.19-4.05 492.71-3.2 495.91-3.2L495.91-3.2Q498.76-3.2 500.11-4.17 501.46-5.15 501.46-6.55L501.46-6.55Q501.46-7.2 501.21-7.75 500.96-8.3 500.19-8.78 499.41-9.25 498.01-9.7 496.61-10.15 494.31-10.65L494.31-10.65Q489.46-11.65 487.14-13.38 484.81-15.1 484.81-17.9L484.81-17.9Q484.81-19.45 485.49-20.75 486.16-22.05 487.49-23 488.81-23.95 490.76-24.5 492.71-25.05 495.26-25.05L495.26-25.05Q498.16-25.05 500.79-24.08 503.41-23.1 505.26-21.85L505.26-21.85 502.96-18.75Q501.21-19.9 499.14-20.58 497.06-21.25 494.81-21.25L494.81-21.25Q492.01-21.25 490.89-20.35 489.76-19.45 489.76-18.15L489.76-18.15Q489.76-16.7 491.31-15.95 492.86-15.2 496.46-14.45L496.46-14.45Q499.46-13.8 501.39-13.05 503.31-12.3 504.44-11.4 505.56-10.5 506.01-9.38 506.46-8.25 506.46-6.85L506.46-6.85Q506.46-5.3 505.71-3.95 504.96-2.6 503.54-1.58 502.11-0.55 500.04 0.03 497.96 0.6 495.26 0.6ZM560.2 0L555.25 0 555.25-20.45 544.3-20.45 544.3-24.45 560.2-24.45 560.2 0ZM557.3-29.2L557.3-29.2Q555.7-29.2 554.65-30.18 553.6-31.15 553.6-32.75L553.6-32.75Q553.6-34.35 554.65-35.33 555.7-36.3 557.3-36.3L557.3-36.3Q558.9-36.3 559.95-35.33 561-34.35 561-32.75L561-32.75Q561-31.15 559.95-30.18 558.9-29.2 557.3-29.2ZM579.3 0L574.35 0 574.35-24.45 578.4-24.45 578.8-20.5 579-20.5Q580.85-22.4 583-23.73 585.15-25.05 588-25.05L588-25.05Q592.3-25.05 594.3-22.5 596.3-19.95 596.3-15.15L596.3-15.15 596.3 0 591.35 0 591.35-14.5Q591.35-17.7 590.2-19.23 589.05-20.75 586.25-20.75L586.25-20.75Q584.3-20.75 582.75-19.78 581.2-18.8 579.3-16.85L579.3-16.85 579.3 0ZM636.65 10.25L636.65 10.25Q635.75 10.25 634.87 10.13 634 10 633.3 9.75L633.3 9.75 634.3 5.9Q634.75 6.05 635.3 6.15 635.85 6.25 636.4 6.25L636.4 6.25Q638.85 6.25 640.35 4.93 641.85 3.6 642.7 1.55L642.7 1.55 643.35-0.15 632.2-24.45 637.15-24.45 642.65-11.7Q643.35-10.05 644.05-8.2 644.75-6.35 645.5-4.55L645.5-4.55 645.7-4.55Q646.3-6.3 646.95-8.15 647.6-10 648.2-11.7L648.2-11.7 653.05-24.45 657.75-24.45 647.3 1.55Q646.55 3.5 645.6 5.1 644.65 6.7 643.37 7.85 642.1 9 640.45 9.63 638.8 10.25 636.65 10.25ZM674.94 0.6L674.94 0.6Q672.54 0.6 670.34-0.25 668.14-1.1 666.44-2.75 664.74-4.4 663.74-6.78 662.74-9.15 662.74-12.2L662.74-12.2Q662.74-15.25 663.74-17.65 664.74-20.05 666.44-21.7 668.14-23.35 670.34-24.2 672.54-25.05 674.94-25.05L674.94-25.05Q677.34-25.05 679.54-24.2 681.74-23.35 683.44-21.7 685.14-20.05 686.14-17.65 687.14-15.25 687.14-12.2L687.14-12.2Q687.14-9.15 686.14-6.78 685.14-4.4 683.44-2.75 681.74-1.1 679.54-0.25 677.34 0.6 674.94 0.6ZM674.94-3.45L674.94-3.45Q678.24-3.45 680.14-5.85 682.04-8.25 682.04-12.2L682.04-12.2Q682.04-16.15 680.14-18.55 678.24-20.95 674.94-20.95L674.94-20.95Q671.64-20.95 669.74-18.55 667.84-16.15 667.84-12.2L667.84-12.2Q667.84-8.25 669.74-5.85 671.64-3.45 674.94-3.45ZM701.94 0.6L701.94 0.6Q697.59 0.6 695.59-1.93 693.59-4.45 693.59-9.3L693.59-9.3 693.59-24.45 698.54-24.45 698.54-9.95Q698.54-6.7 699.69-5.18 700.84-3.65 703.64-3.65L703.64-3.65Q705.54-3.65 707.12-4.58 708.69-5.5 710.49-7.7L710.49-7.7 710.49-24.45 715.44-24.45 715.44 0 711.39 0 710.99-4.05 710.79-4.05Q708.99-1.95 706.87-0.68 704.74 0.6 701.94 0.6ZM731.79 0L726.84 0 726.84-24.45 730.94-24.45 731.34-18.75 731.49-18.75Q733.39-21.75 736.11-23.4 738.84-25.05 742.14-25.05L742.14-25.05Q743.59-25.05 744.69-24.83 745.79-24.6 746.94-24.05L746.94-24.05 745.84-19.8Q744.59-20.2 743.69-20.4 742.79-20.6 741.39-20.6L741.39-20.6Q738.74-20.6 736.29-19.1 733.84-17.6 731.79-13.9L731.79-13.9 731.79 0ZM797.18 0.6L797.18 0.6Q794.33 0.6 791.86-0.25 789.38-1.1 787.58-2.75 785.78-4.4 784.76-6.78 783.73-9.15 783.73-12.2L783.73-12.2Q783.73-15.25 784.83-17.65 785.93-20.05 787.83-21.7 789.73-23.35 792.21-24.2 794.68-25.05 797.48-25.05L797.48-25.05Q800.48-25.05 802.73-24.03 804.98-23 806.48-21.55L806.48-21.55 804.08-18.4Q802.63-19.6 801.08-20.28 799.53-20.95 797.73-20.95L797.73-20.95Q795.78-20.95 794.13-20.33 792.48-19.7 791.31-18.55 790.13-17.4 789.48-15.78 788.83-14.15 788.83-12.2L788.83-12.2Q788.83-10.25 789.46-8.63 790.08-7 791.26-5.85 792.43-4.7 794.03-4.08 795.63-3.45 797.58-3.45L797.58-3.45Q799.83-3.45 801.61-4.3 803.38-5.15 804.83-6.35L804.83-6.35 806.98-3.15Q804.88-1.35 802.38-0.38 799.88 0.6 797.18 0.6ZM824.93 0.6L824.93 0.6Q822.53 0.6 820.33-0.25 818.13-1.1 816.43-2.75 814.73-4.4 813.73-6.78 812.73-9.15 812.73-12.2L812.73-12.2Q812.73-15.25 813.73-17.65 814.73-20.05 816.43-21.7 818.13-23.35 820.33-24.2 822.53-25.05 824.93-25.05L824.93-25.05Q827.33-25.05 829.53-24.2 831.73-23.35 833.43-21.7 835.13-20.05 836.13-17.65 837.13-15.25 837.13-12.2L837.13-12.2Q837.13-9.15 836.13-6.78 835.13-4.4 833.43-2.75 831.73-1.1 829.53-0.25 827.33 0.6 824.93 0.6ZM824.93-3.45L824.93-3.45Q828.23-3.45 830.13-5.85 832.03-8.25 832.03-12.2L832.03-12.2Q832.03-16.15 830.13-18.55 828.23-20.95 824.93-20.95L824.93-20.95Q821.63-20.95 819.73-18.55 817.83-16.15 817.83-12.2L817.83-12.2Q817.83-8.25 819.73-5.85 821.63-3.45 824.93-3.45ZM847.38 0L842.53 0 842.53-24.45 846.43-24.45 846.83-21.25 846.93-21.25Q847.78-22.9 849.05-23.98 850.33-25.05 852.43-25.05L852.43-25.05Q855.93-25.05 856.93-20.85L856.93-20.85Q857.93-22.75 859.2-23.9 860.48-25.05 862.58-25.05L862.58-25.05Q865.18-25.05 866.6-23.08 868.03-21.1 868.03-17.4L868.03-17.4 868.03 0 863.18 0 863.18-17.05Q863.18-20.8 860.93-20.8L860.93-20.8Q859.78-20.8 859.03-19.95 858.28-19.1 857.43-17.4L857.43-17.4 857.43 0 853.13 0 853.13-17.05Q853.13-20.8 850.93-20.8L850.93-20.8Q849.78-20.8 848.98-19.95 848.18-19.1 847.38-17.4L847.38-17.4 847.38 0ZM877.38 0L872.53 0 872.53-24.45 876.43-24.45 876.83-21.25 876.93-21.25Q877.78-22.9 879.05-23.98 880.33-25.05 882.43-25.05L882.43-25.05Q885.93-25.05 886.93-20.85L886.93-20.85Q887.93-22.75 889.2-23.9 890.48-25.05 892.58-25.05L892.58-25.05Q895.18-25.05 896.6-23.08 898.03-21.1 898.03-17.4L898.03-17.4 898.03 0 893.18 0 893.18-17.05Q893.18-20.8 890.93-20.8L890.93-20.8Q889.78-20.8 889.03-19.95 888.28-19.1 887.43-17.4L887.43-17.4 887.43 0 883.13 0 883.13-17.05Q883.13-20.8 880.93-20.8L880.93-20.8Q879.78-20.8 878.98-19.95 878.18-19.1 877.38-17.4L877.38-17.4 877.38 0ZM911.92 0.6L911.92 0.6Q907.57 0.6 905.57-1.93 903.57-4.45 903.57-9.3L903.57-9.3 903.57-24.45 908.52-24.45 908.52-9.95Q908.52-6.7 909.67-5.18 910.82-3.65 913.62-3.65L913.62-3.65Q915.52-3.65 917.1-4.58 918.67-5.5 920.47-7.7L920.47-7.7 920.47-24.45 925.42-24.45 925.42 0 921.37 0 920.97-4.05 920.77-4.05Q918.97-1.95 916.85-0.68 914.72 0.6 911.92 0.6ZM939.27 0L934.32 0 934.32-24.45 938.37-24.45 938.77-20.5 938.97-20.5Q940.82-22.4 942.97-23.73 945.12-25.05 947.97-25.05L947.97-25.05Q952.27-25.05 954.27-22.5 956.27-19.95 956.27-15.15L956.27-15.15 956.27 0 951.32 0 951.32-14.5Q951.32-17.7 950.17-19.23 949.02-20.75 946.22-20.75L946.22-20.75Q944.27-20.75 942.72-19.78 941.17-18.8 939.27-16.85L939.27-16.85 939.27 0ZM980.17 0L975.22 0 975.22-20.45 964.27-20.45 964.27-24.45 980.17-24.45 980.17 0ZM977.27-29.2L977.27-29.2Q975.67-29.2 974.62-30.18 973.57-31.15 973.57-32.75L973.57-32.75Q973.57-34.35 974.62-35.33 975.67-36.3 977.27-36.3L977.27-36.3Q978.87-36.3 979.92-35.33 980.97-34.35 980.97-32.75L980.97-32.75Q980.97-31.15 979.92-30.18 978.87-29.2 977.27-29.2ZM1009.52 0.6L1009.52 0.6Q1006.82 0.6 1004.94-0.15 1003.07-0.9 1001.94-2.25 1000.82-3.6 1000.32-5.48 999.82-7.35 999.82-9.65L999.82-9.65 999.82-20.45 993.12-20.45 993.12-24.2 1000.02-24.45 1000.67-32.2 1004.77-32.2 1004.77-24.45 1016.32-24.45 1016.32-20.45 1004.77-20.45 1004.77-9.65Q1004.77-6.5 1006.04-4.95 1007.32-3.4 1010.67-3.4L1010.67-3.4Q1012.27-3.4 1013.62-3.68 1014.97-3.95 1016.27-4.45L1016.27-4.45 1017.27-0.8Q1015.62-0.25 1013.77 0.18 1011.92 0.6 1009.52 0.6ZM1026.61 10.25L1026.61 10.25Q1025.71 10.25 1024.84 10.13 1023.96 10 1023.26 9.75L1023.26 9.75 1024.26 5.9Q1024.71 6.05 1025.26 6.15 1025.81 6.25 1026.36 6.25L1026.36 6.25Q1028.81 6.25 1030.31 4.93 1031.81 3.6 1032.66 1.55L1032.66 1.55 1033.31-0.15 1022.16-24.45 1027.11-24.45 1032.61-11.7Q1033.31-10.05 1034.01-8.2 1034.71-6.35 1035.46-4.55L1035.46-4.55 1035.66-4.55Q1036.26-6.3 1036.91-8.15 1037.56-10 1038.16-11.7L1038.16-11.7 1043.01-24.45 1047.71-24.45 1037.26 1.55Q1036.51 3.5 1035.56 5.1 1034.61 6.7 1033.34 7.85 1032.06 9 1030.41 9.63 1028.76 10.25 1026.61 10.25ZM1064.91 0.6L1064.91 0.6Q1063.01 0.6 1061.71-0.68 1060.41-1.95 1060.41-4.05L1060.41-4.05Q1060.41-6.1 1061.71-7.4 1063.01-8.7 1064.91-8.7L1064.91-8.7Q1066.81-8.7 1068.11-7.4 1069.41-6.1 1069.41-4.05L1069.41-4.05Q1069.41-1.95 1068.11-0.68 1066.81 0.6 1064.91 0.6Z" opacity="1" transform="matrix(1,0,0,1,0,0)" fill="#322315" class="undefined-text-1" data-fill-palette-color="secondary" id="text-1"></path></svg></g></svg></g></svg></g></svg></g><g transform="matrix(1,0,0,1,0,0.33914317778942404)"><svg viewBox="0 0 135.66087738411193 135.65727111577053" height="135.65727111577053" width="135.66087738411193"><g><svg xmlns="http://www.w3.org/2000/svg" data-name="Layer 1" viewBox="0 0 128.00340270996094 128" x="0" y="0" width="135.66087738411193" height="135.65727111577053" class="icon-icon-0" data-fill-palette-color="accent" id="icon-0"><rect x="44" y="88" width="4" height="4" fill="#cc967b" data-fill-palette-color="accent"></rect><rect x="12" y="72" width="4" height="4" fill="#cc967b" data-fill-palette-color="accent"></rect><rect x="44" y="72" width="4" height="4" fill="#cc967b" data-fill-palette-color="accent"></rect><rect x="12" y="56" width="4" height="4" fill="#cc967b" data-fill-palette-color="accent"></rect><rect x="28" y="56" width="4" height="4" fill="#cc967b" data-fill-palette-color="accent"></rect><circle cx="96" cy="51" r="4.0" fill="#cc967b" data-fill-palette-color="accent"></circle><path d="M96 38A14.13 14.13 0 0 0 82 52.23c0 6 9.07 17.35 14 22.82 4.93-5.48 14-16.79 14-22.82A14.13 14.13 0 0 0 96 38Zm0 21a8 8 0 1 1 8-8A8 8 0 0 1 96 59Z" fill="#cc967b" data-fill-palette-color="accent"></path><path d="M96 23A32.05 32.05 0 0 0 64.57 49H60V46a2 2 0 0 0-2-2H57V10a2 2 0 0 0-2-2H42V4a4 4 0 0 0-4-4H22a4 4 0 0 0-4 4V8H5a2 2 0 0 0-2 2V44H2a2 2 0 0 0-2 2v80a2 2 0 0 0 2 2H58a2 2 0 0 0 2-2V61h4.57A32 32 0 1 0 96 23ZM8 94V86a2 2 0 0 1 2-2h8a2 2 0 0 1 2 2v8a2 2 0 0 1-2 2H10A2 2 0 0 1 8 94Zm2-26h8a2 2 0 0 1 2 2v8a2 2 0 0 1-2 2H10a2 2 0 0 1-2-2V70A2 2 0 0 1 10 68ZM8 62V54a2 2 0 0 1 2-2h8a2 2 0 0 1 2 2v8a2 2 0 0 1-2 2H10A2 2 0 0 1 8 62Zm34.5 62h-4V104H32v20H28V104H21.5v20h-4V102a2 2 0 0 1 2-2h21a2 2 0 0 1 2 2ZM26 68h8a2 2 0 0 1 2 2v8a2 2 0 0 1-2 2H26a2 2 0 0 1-2-2V70A2 2 0 0 1 26 68Zm-2-6V54a2 2 0 0 1 2-2h8a2 2 0 0 1 2 2v8a2 2 0 0 1-2 2H26A2 2 0 0 1 24 62Zm2 22h8a2 2 0 0 1 2 2v8a2 2 0 0 1-2 2H26a2 2 0 0 1-2-2V86A2 2 0 0 1 26 84ZM52 94a2 2 0 0 1-2 2H42a2 2 0 0 1-2-2V86a2 2 0 0 1 2-2h8a2 2 0 0 1 2 2Zm0-16a2 2 0 0 1-2 2H42a2 2 0 0 1-2-2V70a2 2 0 0 1 2-2h8a2 2 0 0 1 2 2Zm0-16a2 2 0 0 1-2 2H42a2 2 0 0 1-2-2V54a2 2 0 0 1 2-2h8a2 2 0 0 1 2 2Zm1-18H7V12H53ZM64.07 57H60V53h4.07c0 0.66-0.07 1.33-0.07 2S64 56.34 64.07 57ZM97.45 79.38a2 2 0 0 1-2.9 0C92.86 77.6 78 61.72 78 52.23a18 18 0 1 1 36 0C114 61.72 99.14 77.6 97.45 79.38Z" fill="#cc967b" data-fill-palette-color="accent"></path><rect x="12" y="88" width="4" height="4" fill="#cc967b" data-fill-palette-color="accent"></rect><rect x="28" y="72" width="4" height="4" fill="#cc967b" data-fill-palette-color="accent"></rect><rect x="44" y="56" width="4" height="4" fill="#cc967b" data-fill-palette-color="accent"></rect><rect x="28" y="88" width="4" height="4" fill="#cc967b" data-fill-palette-color="accent"></rect><path d="M27 40h6a2 2 0 0 0 2-2V32a2 2 0 0 0-2-2H27a2 2 0 0 0-2 2v6A2 2 0 0 0 27 40Zm2-6h2v2H29Z" fill="#cc967b" data-fill-palette-color="accent"></path><path d="M41 40h6a2 2 0 0 0 2-2V32a2 2 0 0 0-2-2H41a2 2 0 0 0-2 2v6A2 2 0 0 0 41 40Zm2-6h2v2H43Z" fill="#cc967b" data-fill-palette-color="accent"></path><path d="M13 40h6a2 2 0 0 0 2-2V32a2 2 0 0 0-2-2H13a2 2 0 0 0-2 2v6A2 2 0 0 0 13 40Zm2-6h2v2H15Z" fill="#cc967b" data-fill-palette-color="accent"></path><path d="M27 26h6a2 2 0 0 0 2-2V18a2 2 0 0 0-2-2H27a2 2 0 0 0-2 2v6A2 2 0 0 0 27 26Zm2-6h2v2H29Z" fill="#cc967b" data-fill-palette-color="accent"></path><path d="M41 26h6a2 2 0 0 0 2-2V18a2 2 0 0 0-2-2H41a2 2 0 0 0-2 2v6A2 2 0 0 0 41 26Zm2-6h2v2H43Z" fill="#cc967b" data-fill-palette-color="accent"></path><path d="M13 26h6a2 2 0 0 0 2-2V18a2 2 0 0 0-2-2H13a2 2 0 0 0-2 2v6A2 2 0 0 0 13 26Zm2-6h2v2H15Z" fill="#cc967b" data-fill-palette-color="accent"></path></svg></g></svg></g></svg></g><defs></defs></svg><rect width="395.52" height="96.3377598339313" fill="none" stroke="none" visibility="hidden"></rect></g></svg></g></svg>